<mxfile host="65bd71144e">
    <diagram id="Qi7LSx28HFMjrjH3Dn8v" name="Page-1">
        <mxGraphModel dx="594" dy="561" grid="1" gridSize="10" guides="1" tooltips="1" connect="1" arrows="1" fold="1" page="1" pageScale="1" pageWidth="827" pageHeight="1169" math="0" shadow="0">
            <root>
                <mxCell id="0"/>
                <mxCell id="1" parent="0"/>
                <mxCell id="2" value="" style="verticalLabelPosition=bottom;verticalAlign=top;html=1;shape=mxgraph.basic.rect;fillColor2=none;strokeWidth=1;size=20;indent=5;" parent="1" vertex="1">
                    <mxGeometry x="80" y="18.380000000000003" width="530" height="460" as="geometry"/>
                </mxCell>
                <mxCell id="3" value="" style="verticalLabelPosition=bottom;verticalAlign=top;html=1;shape=mxgraph.basic.rect;fillColor2=none;strokeWidth=1;size=20;indent=5;" parent="1" vertex="1">
                    <mxGeometry x="120" y="40" width="340" height="60" as="geometry"/>
                </mxCell>
                <mxCell id="4" value="&lt;font style=&quot;font-size: 18px&quot;&gt;What Movie Can You Watch?&lt;/font&gt;" style="text;html=1;resizable=0;autosize=1;align=center;verticalAlign=middle;points=[];fillColor=none;strokeColor=none;rounded=0;" parent="1" vertex="1">
                    <mxGeometry x="160" y="60" width="250" height="20" as="geometry"/>
                </mxCell>
                <mxCell id="10" value="Please choose you age range:" style="text;html=1;resizable=0;autosize=1;align=center;verticalAlign=middle;points=[];fillColor=none;strokeColor=none;rounded=0;fontSize=18;" parent="1" vertex="1">
                    <mxGeometry x="95" y="160" width="260" height="30" as="geometry"/>
                </mxCell>
                <mxCell id="15" value="You can see an R movie alone.&lt;br&gt;&amp;nbsp;" style="text;html=1;align=center;verticalAlign=middle;resizable=0;points=[];autosize=1;strokeColor=none;fillColor=none;fontSize=18;" parent="1" vertex="1">
                    <mxGeometry x="170" y="380" width="260" height="50" as="geometry"/>
                </mxCell>
                <mxCell id="17" value="" style="ellipse;shape=doubleEllipse;whiteSpace=wrap;html=1;aspect=fixed;" vertex="1" parent="1">
                    <mxGeometry x="150" y="220" width="20" height="20" as="geometry"/>
                </mxCell>
                <mxCell id="18" value="" style="ellipse;shape=doubleEllipse;whiteSpace=wrap;html=1;aspect=fixed;" vertex="1" parent="1">
                    <mxGeometry x="200" y="220" width="20" height="20" as="geometry"/>
                </mxCell>
                <mxCell id="19" value="" style="ellipse;shape=doubleEllipse;whiteSpace=wrap;html=1;aspect=fixed;" vertex="1" parent="1">
                    <mxGeometry x="250" y="220" width="20" height="20" as="geometry"/>
                </mxCell>
                <mxCell id="20" value="&lt;font style=&quot;font-size: 11px&quot;&gt;17 +&lt;/font&gt;" style="text;html=1;resizable=0;autosize=1;align=center;verticalAlign=middle;points=[];fillColor=none;strokeColor=none;rounded=0;" vertex="1" parent="1">
                    <mxGeometry x="135" y="250" width="40" height="20" as="geometry"/>
                </mxCell>
                <mxCell id="21" value="&lt;font style=&quot;font-size: 11px&quot;&gt;13 +&lt;/font&gt;" style="text;html=1;resizable=0;autosize=1;align=center;verticalAlign=middle;points=[];fillColor=none;strokeColor=none;rounded=0;" vertex="1" parent="1">
                    <mxGeometry x="190" y="250" width="40" height="20" as="geometry"/>
                </mxCell>
                <mxCell id="23" value="&lt;font style=&quot;font-size: 11px&quot;&gt;5 +&lt;/font&gt;" style="text;html=1;resizable=0;autosize=1;align=center;verticalAlign=middle;points=[];fillColor=none;strokeColor=none;rounded=0;" vertex="1" parent="1">
                    <mxGeometry x="250" y="250" width="30" height="20" as="geometry"/>
                </mxCell>
                <mxCell id="24" value="Enter" style="labelPosition=center;verticalLabelPosition=middle;align=center;html=1;shape=mxgraph.basic.shaded_button;dx=10;fillColor=#E6E6E6;strokeColor=none;fontSize=11;" vertex="1" parent="1">
                    <mxGeometry x="130" y="320" width="160" height="40" as="geometry"/>
                </mxCell>
                <mxCell id="25" value="You can see a PG-13 movie alone.&lt;br&gt;&amp;nbsp;" style="text;html=1;align=center;verticalAlign=middle;resizable=0;points=[];autosize=1;strokeColor=none;fillColor=none;fontSize=18;" vertex="1" parent="1">
                    <mxGeometry x="180" y="410" width="290" height="50" as="geometry"/>
                </mxCell>
                <mxCell id="26" value="You can see a G or PG movie alone.&lt;br&gt;&amp;nbsp;" style="text;html=1;align=center;verticalAlign=middle;resizable=0;points=[];autosize=1;strokeColor=none;fillColor=none;fontSize=18;" vertex="1" parent="1">
                    <mxGeometry x="180" y="440" width="310" height="50" as="geometry"/>
                </mxCell>
                <mxCell id="27" value="&lt;font style=&quot;font-size: 14px&quot;&gt;Answer =&lt;/font&gt;" style="text;html=1;resizable=0;autosize=1;align=center;verticalAlign=middle;points=[];fillColor=none;strokeColor=none;rounded=0;fontSize=11;" vertex="1" parent="1">
                    <mxGeometry x="85" y="410" width="70" height="20" as="geometry"/>
                </mxCell>
                <mxCell id="34" value="" style="verticalLabelPosition=bottom;verticalAlign=top;html=1;shape=mxgraph.basic.rect;fillColor2=none;strokeWidth=1;size=20;indent=5;fontSize=14;" vertex="1" parent="1">
                    <mxGeometry x="430" y="150" width="150" height="140" as="geometry"/>
                </mxCell>
                <mxCell id="35" value="" style="verticalLabelPosition=bottom;verticalAlign=top;html=1;shape=mxgraph.basic.tick;fontSize=14;" vertex="1" parent="1">
                    <mxGeometry x="470" y="170" width="85" height="100" as="geometry"/>
                </mxCell>
            </root>
        </mxGraphModel>
    </diagram>
</mxfile>